<svg id="close_1_" xmlns="http://www.w3.org/2000/svg" width="26.07" height="25.77" viewBox="0 0 26.07 25.77">
  <path id="Path_101" data-name="Path 101" d="M2.472,28.177a2.47,2.47,0,0,1-1.753-.593,2.469,2.469,0,0,1,0-3.482L21.684,3.137A2.469,2.469,0,0,1,25.289,6.5L4.2,27.584a2.469,2.469,0,0,1-1.729.593Z" transform="translate(-0.001 -2.42)" fill="#fff"/>
  <path id="Path_102" data-name="Path 102" d="M24.816,27.6a2.47,2.47,0,0,1-1.729-.716L2.122,5.92A2.469,2.469,0,0,1,5.6,2.438L26.692,23.4a2.469,2.469,0,0,1,.115,3.49q-.056.059-.115.115a2.469,2.469,0,0,1-1.877.593Z" transform="translate(-1.404 -1.844)" fill="#fff"/>
</svg>
