<svg id="discord" xmlns="http://www.w3.org/2000/svg" width="22.406" height="22.406" viewBox="0 0 22.406 22.406">
  <defs>
    <style>
      .cls-1 {
        fill: #43f3ff;
      }
    </style>
  </defs>
  <path id="Path_117" data-name="Path 117" class="cls-1" d="M164.31,234.4a1.465,1.465,0,1,1-1.455-1.632A1.548,1.548,0,0,1,164.31,234.4Z" transform="translate(-154.337 -222.583)"/>
  <path id="Path_118" data-name="Path 118" class="cls-1" d="M287.24,234.4a1.465,1.465,0,1,1-1.455-1.632A1.543,1.543,0,0,1,287.24,234.4Z" transform="translate(-271.887 -222.583)"/>
  <path id="Path_119" data-name="Path 119" class="cls-1" d="M11.2,0a11.2,11.2,0,1,0,11.2,11.2A11.2,11.2,0,0,0,11.2,0Zm8,15.328a13.378,13.378,0,0,1-4.049,2.044.052.052,0,0,1-.057-.019,10.83,10.83,0,0,1-.826-1.345.051.051,0,0,1,.028-.072,8.379,8.379,0,0,0,1.263-.6.052.052,0,0,0,0-.086c-.085-.063-.17-.13-.251-.2a.05.05,0,0,0-.053-.007,9.574,9.574,0,0,1-8.137,0,.05.05,0,0,0-.052.007c-.081.067-.166.133-.251.2a.052.052,0,0,0,0,.086,8.891,8.891,0,0,0,1.263.6.051.051,0,0,1,.028.071A9.577,9.577,0,0,1,7.3,17.353a.052.052,0,0,1-.057.019A13.425,13.425,0,0,1,3.2,15.328a.057.057,0,0,1-.021-.038A13.667,13.667,0,0,1,5.567,6.074a.045.045,0,0,1,.022-.018,13.3,13.3,0,0,1,3.3-1.022.053.053,0,0,1,.053.025,8.609,8.609,0,0,1,.417.843,12.347,12.347,0,0,1,3.7,0,9.33,9.33,0,0,1,.41-.843.05.05,0,0,1,.053-.025,13.341,13.341,0,0,1,3.3,1.022.038.038,0,0,1,.021.019,13.573,13.573,0,0,1,2.394,9.216A.052.052,0,0,1,19.208,15.328Z"/>
</svg>
