<svg id="kakao" xmlns="http://www.w3.org/2000/svg" width="22.406" height="22.406" viewBox="0 0 22.406 22.406">
  <defs>
    <style>
      .cls-1 {
        fill: #43f3ff;
      }
    </style>
  </defs>
  <g id="_56.kakao-talk" data-name="56.kakao-talk" transform="translate(0)">
    <g id="icon">
      <path id="Path_121" data-name="Path 121" class="cls-1" d="M11.2,0a11.2,11.2,0,1,0,11.2,11.2A11.2,11.2,0,0,0,11.2,0Zm0,16.39A8.858,8.858,0,0,1,9.959,16.3c-4.031,2.822-3.455,2.6-2.476-.751A5.345,5.345,0,0,1,4.2,10.907c0-3.03,3.136-5.484,7-5.484s7,2.455,7,5.483-3.136,5.484-7,5.484Z" transform="translate(0)"/>
      <path id="Path_122" data-name="Path 122" class="cls-1" d="M66.24,73.226a.565.565,0,0,0-1.076,0c-.574,1.782-1.343,2.88-.871,3.1.629.285.637-.356.793-.637h1.231c.15.284.166.927.793.637C67.586,76.1,66.826,75.041,66.24,73.226ZM65.3,74.969l.4-1.138.4,1.138Z" transform="translate(-55.98 -63.562)"/>
      <path id="Path_123" data-name="Path 123" class="cls-1" d="M47.781,76.256c-.7,0-.286-.966-.4-2.766-.255-.043-1.027.173-1.027-.393a.4.4,0,0,1,.4-.392c1.469.106,2.465-.274,2.465.392,0,.577-.743.345-1.026.393C48.067,75.283,48.479,76.256,47.781,76.256Z" transform="translate(-40.449 -63.436)"/>
      <path id="Path_124" data-name="Path 124" class="cls-1" d="M90.543,76.308c-.676,0-.265-.913-.382-3.094a.413.413,0,0,1,.825,0v2.358c.39.052,1.245-.192,1.245.368,0,.587-.919.293-1.683.368Z" transform="translate(-78.667 -63.546)"/>
      <path id="Path_125" data-name="Path 125" class="cls-1" d="M109.53,76.169l-.947-1.248-.14.14v.875a.4.4,0,0,1-.4.4c-.7,0-.281-1.011-.4-3.147a.4.4,0,0,1,.4-.4c.61,0,.346.863.4,1.264,1.146-1.094,1.117-1.209,1.352-1.209a.382.382,0,0,1,.307.617l-.92.914.994,1.309A.4.4,0,0,1,109.53,76.169Z" transform="translate(-93.918 -63.523)"/>
    </g>
  </g>
</svg>
