<svg xmlns="http://www.w3.org/2000/svg" width="22.406" height="22.406" viewBox="0 0 22.406 22.406">
  <defs>
    <style>
      .cls-1 {
        fill: #43f3ff;
      }
    </style>
  </defs>
  <path id="telegram" class="cls-1" d="M11.2,22.406A11.2,11.2,0,1,0,0,11.2,11.2,11.2,0,0,0,11.2,22.406ZM5.126,10.96,15.928,6.8c.5-.181.939.122.777.88h0L14.867,16.34c-.136.614-.5.764-1.012.474l-2.8-2.064L9.7,16.051a.706.706,0,0,1-.565.275l.2-2.85,5.191-4.689c.226-.2-.05-.311-.348-.113L7.765,12.713,5,11.85c-.6-.19-.613-.6.127-.89Z"/>
</svg>
