<svg xmlns="http://www.w3.org/2000/svg" width="22.406" height="22.406" viewBox="0 0 22.406 22.406">
  <defs>
    <style>
      .cls-1 {
        fill: #43f3ff;
      }
    </style>
  </defs>
  <g id="twitter" transform="translate(0)">
    <g id="Group_477" data-name="Group 477" transform="translate(0 0)">
      <path id="Path_120" data-name="Path 120" class="cls-1" d="M11.2,0a11.2,11.2,0,1,0,11.2,11.2A11.216,11.216,0,0,0,11.2,0Zm5,8.639c0,.111.008.223.008.335a7.335,7.335,0,0,1-11.29,6.178,5.207,5.207,0,0,0,3.818-1.068,2.581,2.581,0,0,1-2.409-1.791,2.589,2.589,0,0,0,1.164-.043A2.579,2.579,0,0,1,5.424,9.721c0-.011,0-.022,0-.032a2.568,2.568,0,0,0,1.167.322,2.583,2.583,0,0,1-.8-3.443,7.322,7.322,0,0,0,5.315,2.695A2.58,2.58,0,0,1,15.5,6.911a5.147,5.147,0,0,0,1.638-.626,2.59,2.59,0,0,1-1.135,1.427,5.126,5.126,0,0,0,1.481-.406A5.187,5.187,0,0,1,16.2,8.639Z" transform="translate(0 0)"/>
    </g>
  </g>
</svg>
