<svg id="magnifier" xmlns="http://www.w3.org/2000/svg" width="16.886" height="16.886" viewBox="0 0 16.886 16.886">
  <g id="Group_392" data-name="Group 392">
    <path id="Path_111" data-name="Path 111" d="M14.883,11.693A6.852,6.852,0,1,0,5.193,2a6.719,6.719,0,0,0-1.031,8.269.288.288,0,0,1-.04.343l-3.5,3.5A1.6,1.6,0,0,0,.383,16.4l.106.106a1.6,1.6,0,0,0,2.286-.244l3.488-3.488a.293.293,0,0,1,.351-.047A6.719,6.719,0,0,0,14.883,11.693ZM6.458,10.428a5.063,5.063,0,1,1,7.16,0A5.068,5.068,0,0,1,6.458,10.428Z" transform="translate(-0.001 0)" fill="#0da0a9"/>
    <g id="Group_391" data-name="Group 391" transform="translate(6.188 2.742)">
      <path id="Path_112" data-name="Path 112" d="M114.459,54.109a.708.708,0,0,1-.651-.983,4.457,4.457,0,0,1,5.835-2.365.707.707,0,1,1-.551,1.3,3.041,3.041,0,0,0-3.981,1.614A.707.707,0,0,1,114.459,54.109Z" transform="translate(-113.752 -50.409)" fill="#0da0a9"/>
    </g>
  </g>
</svg>
