<svg xmlns="http://www.w3.org/2000/svg" width="36.509" height="30.862" viewBox="0 0 36.509 30.862">
  <g id="hungericon" transform="translate(-293.284 -677.568)">
    <g id="discount" transform="translate(292.785 677.568)">
      <path id="Path_79" data-name="Path 79" d="M292.42,289.2a2.72,2.72,0,1,0,2.72,2.72A2.723,2.723,0,0,0,292.42,289.2Zm0,3.5a.785.785,0,1,1,.785-.785A.785.785,0,0,1,292.42,292.7Zm0,0" transform="translate(-282.14 -282.138)" fill="#6bff23"/>
      <path id="Path_80" data-name="Path 80" d="M3.219,5.44a2.72,2.72,0,0,0,0-5.44h0a2.72,2.72,0,0,0,0,5.44Zm0-3.5a.785.785,0,1,1-.785.785A.785.785,0,0,1,3.219,1.936Zm0,0" transform="translate(0 -0.001)" fill="#6bff23"/>
      <path id="Path_81" data-name="Path 81" d="M13.02,1.151A1.151,1.151,0,0,0,11.055.337l-10.2,10.2a1.151,1.151,0,1,0,1.628,1.627l10.2-10.2a1.143,1.143,0,0,0,.337-.814Zm0,0" transform="translate(-0.02)" fill="#6bff23"/>
    </g>
    <g id="ham" transform="translate(300.999 679.636)">
      <path id="Path_82" data-name="Path 82" d="M269.388,13.771c1.647-1.647.045-5.92-3.579-9.544S257.913-1,256.265.648s-.045,5.92,3.579,9.544,7.9,5.226,9.544,3.579ZM261.037,5.42c.691-.692,1.946-.44,2.982.6s1.288,2.291.6,2.983-1.946.44-2.983-.6S260.346,6.112,261.037,5.42Zm0,0" transform="translate(-241.242)" fill="#d9a820"/>
      <path id="Path_83" data-name="Path 83" d="M109.622,72.018l.95-.95a16.905,16.905,0,0,0,11.893-4.758c-2.663-.236-5.849-2.164-8.392-4.708s-4.472-5.73-4.708-8.392A16.905,16.905,0,0,0,104.607,65.1l-.949.949a4.218,4.218,0,0,0,5.965,5.965Zm0,0" transform="translate(-96.663 -50.217)" fill="#d9a820"/>
      <path id="Path_84" data-name="Path 84" d="M3.6,387.565a2.109,2.109,0,1,0,2.982,0,2.016,2.016,0,0,0-.359-.238l.964-.964a5.809,5.809,0,0,1-1.388-1,5.814,5.814,0,0,1-1-1.388l-.964.964a2.019,2.019,0,0,0-.238-.358,2.109,2.109,0,1,0,0,2.982Zm0,0" transform="translate(0 -362.372)" fill="#d9a820"/>
    </g>
  </g>
</svg>
