<svg xmlns="http://www.w3.org/2000/svg" width="12.92" height="12.92" viewBox="0 0 12.92 12.92">
  <path id="Path_96" data-name="Path 96" d="M6.46,0a6.46,6.46,0,1,0,6.46,6.46A6.46,6.46,0,0,0,6.46,0ZM7.8,10.012q-.5.2-.8.3a2.1,2.1,0,0,1-.69.1,1.375,1.375,0,0,1-.939-.295.951.951,0,0,1-.334-.748,2.716,2.716,0,0,1,.025-.36c.017-.123.044-.26.08-.415l.416-1.47c.037-.141.068-.275.094-.4A1.773,1.773,0,0,0,5.7,6.381a.533.533,0,0,0-.116-.392.659.659,0,0,0-.445-.11,1.167,1.167,0,0,0-.331.049c-.112.034-.209.066-.289.1l.11-.453q.409-.167.782-.285a2.31,2.31,0,0,1,.705-.119,1.35,1.35,0,0,1,.925.29.963.963,0,0,1,.325.753q0,.1-.022.337a2.258,2.258,0,0,1-.083.444L6.845,8.456c-.034.118-.064.252-.091.4a2.128,2.128,0,0,0-.04.342.492.492,0,0,0,.131.4.732.732,0,0,0,.452.106,1.312,1.312,0,0,0,.342-.053,1.947,1.947,0,0,0,.277-.093ZM7.731,4.063a.988.988,0,0,1-.7.269,1,1,0,0,1-.7-.269.859.859,0,0,1-.291-.652.868.868,0,0,1,.291-.654.991.991,0,0,1,.7-.272.98.98,0,0,1,.7.272.881.881,0,0,1,0,1.307Z" fill="#858585"/>
</svg>
