<svg xmlns="http://www.w3.org/2000/svg" width="36.507" height="29.591" viewBox="0 0 36.507 29.591">
  <g id="mineicon" transform="translate(-279.75 -673.84)">
    <g id="mine" transform="translate(288.385 675.559)">
      <path id="Path_69" data-name="Path 69" d="M421.446,125.82a.817.817,0,0,0,1.1-.365l1.633-3.266a.817.817,0,0,0-1.461-.73l-1.633,3.266A.817.817,0,0,0,421.446,125.82Z" transform="translate(-398.076 -114.42)" fill="#43f3ff"/>
      <path id="Path_70" data-name="Path 70" d="M214.712,301.09l-3.266,1.633a.817.817,0,0,0,.73,1.461l3.266-1.633a.817.817,0,0,0-.73-1.461Z" transform="translate(-199.508 -284.617)" fill="#43f3ff"/>
      <path id="Path_71" data-name="Path 71" d="M231.173,69.382a.817.817,0,0,0-1.155,0l-2.887,2.887,2.31,2.31,2.887-2.887a.817.817,0,0,0,0-1.155Z" transform="translate(-214.766 -65.379)" fill="#43f3ff"/>
      <path id="Path_72" data-name="Path 72" d="M122.775,0a.825.825,0,0,0-.567,1.4l4.33,4.33,2.31-2.31-1.171-1.171A7.662,7.662,0,0,0,122.775,0Z" transform="translate(-115.328 0)" fill="#43f3ff"/>
      <path id="Path_73" data-name="Path 73" d="M296.505,153.856a7.662,7.662,0,0,0-2.253-4.9l-1.171-1.171-2.31,2.31,4.33,4.33A.825.825,0,0,0,296.505,153.856Z" transform="translate(-274.943 -139.738)" fill="#43f3ff"/>
      <path id="Path_74" data-name="Path 74" d="M.239,159.909l1.155,1.155a.817.817,0,0,0,1.155,0L13.52,150.093l-2.31-2.31L.239,158.754a.817.817,0,0,0,0,1.155Z" transform="translate(0 -139.738)" fill="#43f3ff"/>
      <path id="Path_75" data-name="Path 75" d="M407.3,211.078l-3.321,1.633a.817.817,0,0,0-.365.365l-1.092,2.184,5.96-1.181v-2.27a.817.817,0,0,0-1.182-.73Z" transform="translate(-380.612 -199.505)" fill="#43f3ff"/>
      <path id="Path_76" data-name="Path 76" d="M184,421a.816.816,0,0,0-.679.364l-2.178,3.321a.816.816,0,0,0,.679,1.27H194.3L192.664,421Z" transform="translate(-171.15 -398.081)" fill="#43f3ff"/>
      <path id="Path_77" data-name="Path 77" d="M326.775,300.341l-1.5,3h4.395a.816.816,0,0,1,.774.558l1.992,6.029h2.188a.817.817,0,0,0,.817-.817V298.3l-8.093,1.608A.817.817,0,0,0,326.775,300.341Z" transform="translate(-307.565 -282.059)" fill="#43f3ff"/>
    </g>
    <g id="up-arrow" transform="translate(279.75 673.84)">
      <g id="Group_254" data-name="Group 254">
        <path id="Path_78" data-name="Path 78" d="M44.471,5.929,38.629.085a.292.292,0,0,0-.413,0L32.392,5.929a.292.292,0,0,0,.207.5H35.81v7.3a.292.292,0,0,0,.292.292h4.671a.292.292,0,0,0,.292-.292v-7.3h3.2a.292.292,0,0,0,.206-.5Z" transform="translate(-32.307)" fill="#6bff23"/>
      </g>
    </g>
  </g>
</svg>
