<svg xmlns="http://www.w3.org/2000/svg" width="36.946" height="32" viewBox="0 0 36.946 32">
  <g id="synthesisicon" transform="translate(-293.284 -676)">
    <g id="discount" transform="translate(292.785 677.568)">
      <path id="Path_79" data-name="Path 79" d="M292.42,289.2a2.72,2.72,0,1,0,2.72,2.72A2.723,2.723,0,0,0,292.42,289.2Zm0,3.5a.785.785,0,1,1,.785-.785A.785.785,0,0,1,292.42,292.7Zm0,0" transform="translate(-282.14 -282.138)" fill="#6bff23"/>
      <path id="Path_80" data-name="Path 80" d="M3.219,5.44a2.72,2.72,0,0,0,0-5.44h0a2.72,2.72,0,0,0,0,5.44Zm0-3.5a.785.785,0,1,1-.785.785A.785.785,0,0,1,3.219,1.936Zm0,0" transform="translate(0 -0.001)" fill="#6bff23"/>
      <path id="Path_81" data-name="Path 81" d="M13.02,1.151A1.151,1.151,0,0,0,11.055.337l-10.2,10.2a1.151,1.151,0,1,0,1.628,1.627l10.2-10.2a1.143,1.143,0,0,0,.337-.814Zm0,0" transform="translate(-0.02)" fill="#6bff23"/>
    </g>
    <g id="flask" transform="translate(299.29 676)">
      <g id="Group_261" data-name="Group 261" transform="translate(18.218 1.923)">
        <g id="Group_260" data-name="Group 260" transform="translate(0)">
          <circle id="Ellipse_6" data-name="Ellipse 6" cx="1.928" cy="1.928" r="1.928" fill="#cd65f8"/>
        </g>
      </g>
      <g id="Group_263" data-name="Group 263" transform="translate(22.458 0)">
        <g id="Group_262" data-name="Group 262">
          <circle id="Ellipse_7" data-name="Ellipse 7" cx="1.542" cy="1.542" r="1.542" fill="#cd65f8"/>
        </g>
      </g>
      <g id="Group_265" data-name="Group 265" transform="translate(5.495 6.94)">
        <g id="Group_264" data-name="Group 264">
          <path id="Path_95" data-name="Path 95" d="M30.478,31.009l-8.02-12.823V14.336h2.313v-2.7H11.663v2.7h2.313v3.851L5.957,31.009A3.857,3.857,0,0,0,9.351,36.7H27.085a3.856,3.856,0,0,0,3.393-5.688ZM12.1,26.282l4.579-7.322V14.335H19.76v4.626l4.579,7.322Z" transform="translate(-5.495 -11.637)" fill="#cd65f8"/>
        </g>
      </g>
    </g>
  </g>
</svg>
