<svg xmlns="http://www.w3.org/2000/svg" width="20.016" height="20.016" viewBox="0 0 20.016 20.016">
  <path id="Path_100" data-name="Path 100" d="M10.008,0A10.008,10.008,0,1,0,20.016,10.008,10.008,10.008,0,0,0,10.008,0Zm2.083,15.51q-.773.305-1.233.464a3.252,3.252,0,0,1-1.069.16,2.131,2.131,0,0,1-1.455-.457,1.474,1.474,0,0,1-.518-1.158,4.207,4.207,0,0,1,.038-.558c.026-.19.068-.4.125-.643l.645-2.277c.057-.219.106-.426.145-.619a2.746,2.746,0,0,0,.058-.536.826.826,0,0,0-.18-.607,1.02,1.02,0,0,0-.689-.17,1.808,1.808,0,0,0-.513.076c-.174.053-.324.1-.448.149l.17-.7Q7.8,8.374,8.379,8.19a3.579,3.579,0,0,1,1.093-.185,2.091,2.091,0,0,1,1.434.449,1.492,1.492,0,0,1,.5,1.166q0,.149-.035.523a3.5,3.5,0,0,1-.129.687L10.6,13.1c-.053.182-.1.391-.141.624a3.3,3.3,0,0,0-.062.53.762.762,0,0,0,.2.617,1.134,1.134,0,0,0,.7.164,2.032,2.032,0,0,0,.53-.082,3.016,3.016,0,0,0,.429-.144Zm-.114-9.216a1.531,1.531,0,0,1-1.08.417,1.547,1.547,0,0,1-1.084-.417,1.331,1.331,0,0,1-.452-1.011A1.344,1.344,0,0,1,9.813,4.27,1.536,1.536,0,0,1,10.9,3.849a1.518,1.518,0,0,1,1.08.421,1.365,1.365,0,0,1,0,2.024Z" fill="#fff"/>
</svg>
