<svg id="close_1_" xmlns="http://www.w3.org/2000/svg" width="11.11" height="10.982" viewBox="0 0 11.11 10.982">
  <path id="Path_101" data-name="Path 101" d="M1.054,13.426a1.052,1.052,0,0,1-.747-.253,1.052,1.052,0,0,1,0-1.484L9.241,2.755a1.052,1.052,0,0,1,1.536,1.431L1.79,13.173a1.052,1.052,0,0,1-.737.253Z" transform="translate(-0.001 -2.449)" fill="#ff4141"/>
  <path id="Path_102" data-name="Path 102" d="M11.452,12.82a1.052,1.052,0,0,1-.737-.305L1.781,3.581A1.052,1.052,0,0,1,3.265,2.1l8.987,8.934a1.052,1.052,0,0,1,.049,1.487q-.024.025-.049.049a1.052,1.052,0,0,1-.8.253Z" transform="translate(-1.475 -1.844)" fill="#ff4141"/>
</svg>
