<svg xmlns="http://www.w3.org/2000/svg" width="17.217" height="17.217" viewBox="0 0 17.217 17.217">
  <path id="Path_107" data-name="Path 107" d="M8.608,0a8.609,8.609,0,1,0,8.609,8.608A8.609,8.609,0,0,0,8.608,0ZM10.4,13.342q-.665.262-1.06.4a2.8,2.8,0,0,1-.92.138,1.833,1.833,0,0,1-1.251-.393,1.268,1.268,0,0,1-.445-1,3.619,3.619,0,0,1,.033-.48c.023-.163.058-.347.107-.553L7.418,9.5c.049-.188.091-.367.125-.533a2.362,2.362,0,0,0,.05-.461.71.71,0,0,0-.155-.523.878.878,0,0,0-.592-.146A1.555,1.555,0,0,0,6.4,7.9c-.149.046-.279.087-.386.128l.146-.6q.544-.222,1.042-.38a3.079,3.079,0,0,1,.94-.159,1.8,1.8,0,0,1,1.233.386,1.283,1.283,0,0,1,.433,1q0,.128-.03.45a3.009,3.009,0,0,1-.111.591l-.552,1.953c-.045.157-.085.336-.122.536a2.836,2.836,0,0,0-.053.456.655.655,0,0,0,.174.531.975.975,0,0,0,.6.141,1.748,1.748,0,0,0,.456-.071,2.594,2.594,0,0,0,.369-.124Zm-.1-7.928a1.317,1.317,0,0,1-.929.359,1.33,1.33,0,0,1-.933-.359,1.145,1.145,0,0,1-.388-.869,1.156,1.156,0,0,1,.388-.872,1.321,1.321,0,0,1,.933-.362,1.306,1.306,0,0,1,.929.362,1.174,1.174,0,0,1,0,1.741Z" fill="#fff"/>
</svg>
