<svg xmlns="http://www.w3.org/2000/svg" width="28.518" height="26.625" viewBox="0 0 28.518 26.625">
  <g id="dashboard" transform="translate(0 -17)">
    <path id="Path_114" data-name="Path 114" d="M26.012,17H2.506A2.509,2.509,0,0,0,0,19.506V35.771a2.509,2.509,0,0,0,2.506,2.506H10.6l-.613,3.676H8.912a.835.835,0,1,0,0,1.671H19.606a.835.835,0,1,0,0-1.671H18.532l-.613-3.676h8.093a2.509,2.509,0,0,0,2.506-2.506V19.506A2.509,2.509,0,0,0,26.012,17ZM16.838,41.954H11.681l.613-3.676h3.932Zm10.01-6.183a.836.836,0,0,1-.835.836H2.506a.836.836,0,0,1-.835-.836V19.506a.836.836,0,0,1,.835-.835H13.424v.947a.835.835,0,0,0,1.671,0v-.947H26.012a.836.836,0,0,1,.835.835Z" fill="#15a4c6"/>
    <path id="Path_115" data-name="Path 115" d="M72.965,118.347a.836.836,0,0,0-.835.835v2.729H70.236v-5.4a.835.835,0,1,0-1.671,0v5.4H66.671v-8.076a.835.835,0,0,0-1.671,0v8.912a.836.836,0,0,0,.836.836h7.13a.836.836,0,0,0,.836-.836v-3.565A.836.836,0,0,0,72.965,118.347Z" transform="translate(-61.38 -90.653)" fill="#15a4c6"/>
    <path id="Path_116" data-name="Path 116" d="M277.846,121a4.843,4.843,0,0,0-3.464,8.231.55.55,0,0,0,.079.079,4.845,4.845,0,1,0,3.385-8.31Zm3.063,4.01h-2.227v-2.227A3.186,3.186,0,0,1,280.908,125.01Zm-3.9-2.227V125.5l-1.92,1.92A3.176,3.176,0,0,1,277.01,122.783Zm-.738,5.818,1.92-1.92h2.716A3.176,3.176,0,0,1,276.272,128.6Z" transform="translate(-257.794 -98.207)" fill="#15a4c6"/>
  </g>
</svg>
