<svg xmlns="http://www.w3.org/2000/svg" width="27" height="27" viewBox="0 0 27 27">
  <path id="share-link" d="M27,13.658v9.123A4.223,4.223,0,0,1,22.781,27H4.219A4.223,4.223,0,0,1,0,22.781V4.219A4.223,4.223,0,0,1,4.219,0h9.176a1.055,1.055,0,1,1,0,2.109H4.219A2.112,2.112,0,0,0,2.109,4.219V22.781a2.112,2.112,0,0,0,2.109,2.109H22.781a2.112,2.112,0,0,0,2.109-2.109V13.658a1.055,1.055,0,1,1,2.109,0ZM14.405,9.8a1.086,1.086,0,0,0,.067.12c.08.123.266.405.477.694l-3.461,3.461a1.055,1.055,0,0,0,1.491,1.492l1.91-1.91c.045.083.089.166.13.247a2.786,2.786,0,0,1,.285,1.2,5.184,5.184,0,0,1-1.784,3.448l-.1.084a1.068,1.068,0,0,0-.108.108l-.084.1a5.188,5.188,0,0,1-3.448,1.784,2.844,2.844,0,0,1-1.679-.56c-.019-.017-.039-.033-.059-.049l-.1-.078a4.559,4.559,0,0,1-.448-.394,3.151,3.151,0,0,1-1.061-2.268,5.186,5.186,0,0,1,1.784-3.449l.1-.084a1.069,1.069,0,0,0,.107-.107l.084-.1a6.006,6.006,0,0,1,2.661-1.69,1.055,1.055,0,0,0-.5-2.049A8.067,8.067,0,0,0,6.99,12.066c-.018.018-.036.037-.052.056l-.06.07-.07.06c-.019.017-.038.034-.056.052a7.216,7.216,0,0,0-2.427,4.965A5.22,5.22,0,0,0,6,21.03a6.7,6.7,0,0,0,.655.576l.034.026a1.021,1.021,0,0,0,.095.079,4.971,4.971,0,0,0,3,1.018A7.22,7.22,0,0,0,14.749,20.3c.018-.018.036-.037.053-.057l.06-.069.069-.06c.019-.017.038-.034.056-.053A7.217,7.217,0,0,0,17.414,15.1a4.879,4.879,0,0,0-.5-2.114l-.008-.017c-.074-.149-.255-.5-.478-.855l3.4-3.4a1.055,1.055,0,0,0-1.492-1.492L16.463,9.1c-.063-.091-.125-.183-.182-.27a2.764,2.764,0,0,1-.261-1.145A5.186,5.186,0,0,1,17.8,4.235l.1-.084a1.043,1.043,0,0,0,.108-.108l.084-.1a5.19,5.19,0,0,1,3.449-1.784,2.843,2.843,0,0,1,1.679.56c.019.017.039.033.059.049l.1.078a4.633,4.633,0,0,1,.448.394,3.151,3.151,0,0,1,1.061,2.268A5.186,5.186,0,0,1,23.107,8.96l-.1.084a1.048,1.048,0,0,0-.107.107l-.084.1A5.734,5.734,0,0,1,20.079,10.9a1.055,1.055,0,1,0,.446,2.061,7.8,7.8,0,0,0,3.809-2.244c.018-.018.035-.037.052-.056l.06-.07.07-.06c.019-.017.038-.034.056-.052A7.216,7.216,0,0,0,27,5.512a5.22,5.22,0,0,0-1.68-3.761,6.692,6.692,0,0,0-.655-.576l-.034-.026a1.077,1.077,0,0,0-.095-.078,4.971,4.971,0,0,0-3-1.018A7.22,7.22,0,0,0,16.575,2.48c-.018.018-.036.037-.053.057l-.06.069-.07.06c-.019.017-.038.034-.056.052A7.216,7.216,0,0,0,13.91,7.683a4.879,4.879,0,0,0,.5,2.114Zm0,0" fill="#15a4c6"/>
</svg>
