<svg id="life" xmlns="http://www.w3.org/2000/svg" xmlns:xlink="http://www.w3.org/1999/xlink" width="73" height="73" viewBox="0 0 73 73">
  <defs>
    <linearGradient id="linear-gradient" x1="0.146" y1="0.854" x2="0.854" y2="0.146" gradientUnits="objectBoundingBox">
      <stop offset="0" stop-color="#ff4747"/>
      <stop offset="1" stop-color="#ff9ceb"/>
    </linearGradient>
    <linearGradient id="linear-gradient-2" x1="-1.76" y1="2.889" x2="1.212" y2="-0.473" gradientUnits="objectBoundingBox">
      <stop offset="0" stop-color="#ffb5d3"/>
      <stop offset="0.418" stop-color="#ffdbea"/>
      <stop offset="0.784" stop-color="#fff5f9"/>
      <stop offset="1" stop-color="#fff"/>
    </linearGradient>
    <linearGradient id="linear-gradient-3" x1="0.294" y1="0.595" x2="1.508" y2="-0.555" gradientUnits="objectBoundingBox">
      <stop offset="0" stop-color="#ff3838"/>
      <stop offset="1" stop-color="#ff9ceb"/>
    </linearGradient>
    <linearGradient id="linear-gradient-4" x1="-0.665" y1="1.712" x2="1.758" y2="-0.716" xlink:href="#linear-gradient-3"/>
  </defs>
  <circle id="Ellipse_11" data-name="Ellipse 11" cx="36.5" cy="36.5" r="36.5" fill="url(#linear-gradient)"/>
  <path id="Path_131" data-name="Path 131" d="M108.345,113.958q-.055-1.789-.123-3.579a.778.778,0,0,0-.744-.737q-1.791-.053-3.582-.1-.057-1.8-.125-3.6a.777.777,0,0,0-.738-.741q-5.685-.168-11.371-.232a.7.7,0,0,0-.7.72q.022,1.819.042,3.637-1.791-.015-3.581-.022a.717.717,0,0,0-.714.726q.006,1.821.011,3.642-2.163,0-4.325,0,.005-1.821.011-3.642a.717.717,0,0,0-.714-.726q-1.791.007-3.581.022.019-1.819.042-3.637a.7.7,0,0,0-.7-.72q-5.685.064-11.371.232a.777.777,0,0,0-.738.741q-.068,1.8-.125,3.6-1.791.045-3.582.1a.778.778,0,0,0-.744.737q-.068,1.789-.123,3.579-1.8.043-3.6.093a.774.774,0,0,0-.746.731q-.238,6.751-.266,13.5a.715.715,0,0,0,.726.709l3.642-.006q0,1.789,0,3.579a.731.731,0,0,0,.732.719l3.641.015q.009,1.8.028,3.6a.741.741,0,0,0,.735.726q1.817.016,3.634.029.016,1.808.041,3.616a.746.746,0,0,0,.734.731q1.811.019,3.622.034.019,1.815.042,3.629a.745.745,0,0,0,.731.733q1.8.018,3.6.03.015,1.819.034,3.637a.738.738,0,0,0,.724.733q1.791.013,3.582.018.006,1.821.014,3.642a.726.726,0,0,0,.714.73q1.421,0,2.843,0a.726.726,0,0,0,.714-.73q.007-1.821.014-3.642,1.791,0,3.582-.018a.738.738,0,0,0,.724-.733q.019-1.819.034-3.637,1.8-.012,3.6-.03a.745.745,0,0,0,.731-.733q.019-1.452.035-2.9a.742.742,0,0,1,.732-.732l2.9-.028a.746.746,0,0,0,.734-.731q.024-1.808.041-3.616,1.817-.013,3.634-.029a.741.741,0,0,0,.735-.726q.019-1.8.028-3.6l3.641-.015a.731.731,0,0,0,.732-.719q.009-1.789,0-3.579l3.642.006a.715.715,0,0,0,.726-.709q-.028-6.751-.266-13.5a.774.774,0,0,0-.746-.731q-1.8-.05-3.6-.093Z" transform="translate(-48.17 -90.051)" fill="url(#linear-gradient-2)"/>
  <path id="Path_132" data-name="Path 132" d="M110.92,144.341l-2.173,0q0-2.185.011-4.37-2.163,0-4.325.019.018-2.183.041-4.365-6.447.054-12.893.216-.069,2.16-.123,4.32-2.163.043-4.325.095-.233,7.515-.248,15.03l4.37-.006q0,2.16.007,4.32l4.369.015q.009,2.17.028,4.34,2.18.016,4.361.026.014,2.177.036,4.355,2.173.017,4.346.028.013,2.183.031,4.365,2.162.014,4.325.019.006,2.185.014,4.37,2.149.006,4.3,0,.008-2.185.014-4.37,2.163,0,4.325-.019.018-2.183.031-4.365,2.173-.01,4.346-.028.022-2.177.036-4.355,2.18-.011,4.361-.026.02-2.17.028-4.34C121.133,154.567,115.99,149.44,110.92,144.341Z" transform="translate(-74.534 -116.35)" fill="url(#linear-gradient-3)"/>
  <path id="Path_133" data-name="Path 133" d="M275.464,140.162q-.054-2.16-.123-4.32-6.447-.162-12.893-.216.023,2.183.041,4.365-2.162-.014-4.325-.019.006,2.185.011,4.37l-2.173,0a15.247,15.247,0,0,0,15.291,15.274l4.369-.015q.011-2.16.007-4.32l4.37.006q-.016-7.515-.248-15.03-2.163-.052-4.325-.094Z" transform="translate(-219.615 -116.35)" fill="url(#linear-gradient-4)"/>
</svg>
