<svg xmlns="http://www.w3.org/2000/svg" width="149.264" height="132.309" viewBox="0 0 149.264 132.309">
  <g id="caution-sign" transform="translate(0.001 -18.717)">
    <path id="Path_115" data-name="Path 115" d="M147.728,133.85,84.547,24.441a11.45,11.45,0,0,0-19.831,0L1.534,133.85a11.45,11.45,0,0,0,9.916,17.176H137.813a11.45,11.45,0,0,0,9.916-17.176ZM11.45,139.576,74.631,30.167l63.182,109.41Z" fill="#43f3ff"/>
    <path id="Path_116" data-name="Path 116" d="M147.244,120.583l3.284,37.592a4.66,4.66,0,0,0,9.285,0l3.284-37.592a8.511,8.511,0,0,0,0-1.385,7.956,7.956,0,1,0-15.852,1.385Z" transform="translate(-80.539 -50.997)" fill="#43f3ff"/>
    <circle id="Ellipse_8" data-name="Ellipse 8" cx="6.567" cy="6.567" r="6.567" transform="translate(68.064 113.745)" fill="#43f3ff"/>
  </g>
</svg>
