<svg id="close_1_" xmlns="http://www.w3.org/2000/svg" width="16.888" height="16.694" viewBox="0 0 16.888 16.694">
  <path id="Path_101" data-name="Path 101" d="M1.6,19.123a1.6,1.6,0,0,1-1.136-.384,1.6,1.6,0,0,1,0-2.256L14.047,2.9a1.6,1.6,0,0,1,2.335,2.176L2.721,18.739a1.6,1.6,0,0,1-1.12.384Z" transform="translate(-0.001 -2.438)" fill="#025962"/>
  <path id="Path_102" data-name="Path 102" d="M16.614,18.529a1.6,1.6,0,0,1-1.12-.464L1.913,4.484A1.6,1.6,0,0,1,4.168,2.229L17.83,15.81a1.6,1.6,0,0,1,.074,2.261q-.036.038-.074.074a1.6,1.6,0,0,1-1.216.384Z" transform="translate(-1.448 -1.844)" fill="#025962"/>
</svg>
