<svg xmlns="http://www.w3.org/2000/svg" width="18.457" height="15.936" viewBox="0 0 18.457 15.936">
  <g id="hearticon" transform="translate(-0.08 -35.076)">
    <path id="Path_129" data-name="Path 129" d="M41.63,63.5a7.434,7.434,0,0,0-9.55,9.313l-4.544-4.544-1.328-1.328a4.105,4.105,0,0,1,5.806-5.806l1.326,1.326,1.319-1.319A4.1,4.1,0,0,1,41.63,63.5Z" transform="translate(-24.027 -23.963)" fill="#ff5559"/>
    <path id="Path_130" data-name="Path 130" d="M9.312,51.012a.9.9,0,0,1-.638-.265l-.007-.007L1.544,43.62a5.006,5.006,0,0,1,7.08-7.08l.689.689.682-.683a5.006,5.006,0,1,1,7.08,7.08l-2.929,2.928a.9.9,0,1,1-1.275-1.275l2.93-2.928a3.2,3.2,0,0,0-4.531-4.53L9.95,39.14a.9.9,0,0,1-1.275,0L7.348,37.814a3.2,3.2,0,0,0-4.531,4.529l6.495,6.493.69-.69a.9.9,0,1,1,1.275,1.275L9.95,50.749a.9.9,0,0,1-.638.263Z" transform="translate(0)" fill="#fff"/>
  </g>
</svg>
